<svg width="24" height="24" viewBox="0 0 24 24" fill="none" xmlns="http://www.w3.org/2000/svg">
    <path d="M2.32687 12.8628C2.52673 13.0626 2.79776 13.1748 3.08035 13.1748C3.36295 13.1748 3.63398 13.0626 3.83384 12.8628L9.10931 7.58733L14.3848 12.8628C14.5858 13.0569 14.855 13.1644 15.1344 13.1619C15.4139 13.1595 15.6812 13.0474 15.8788 12.8498C16.0764 12.6522 16.1884 12.3849 16.1909 12.1055C16.1933 11.826 16.0859 11.5568 15.8917 11.3558L9.86279 5.32687C9.66294 5.12707 9.39191 5.01483 9.10931 5.01483C8.82671 5.01483 8.55568 5.12707 8.35582 5.32687L2.32687 11.3558C2.12707 11.5557 2.01483 11.8267 2.01483 12.1093C2.01483 12.3919 2.12707 12.6629 2.32687 12.8628Z" fill="#363636"/>
</svg>
