<svg width="32" height="32" viewBox="0 0 32 32" fill="none" xmlns="http://www.w3.org/2000/svg">
    <path d="M28 6.66667C26.52 6.2 24.8933 6 23.3333 6C20.7333 6 17.9333 6.53333 16 8C14.0666 6.53333 11.2666 6 8.66665 6C6.06665 6 3.26665 6.53333 1.33331 8V27.5333C1.33331 27.8667 1.66665 28.2 1.99998 28.2C2.13331 28.2 2.19998 28.1333 2.33331 28.1333C4.13331 27.2667 6.73331 26.6667 8.66665 26.6667C11.2666 26.6667 14.0666 27.2 16 28.6667C17.8 27.5333 21.0666 26.6667 23.3333 26.6667C25.5333 26.6667 27.8 27.0667 29.6666 28.0667C29.8 28.1333 29.8666 28.1333 30 28.1333C30.3333 28.1333 30.6666 27.8 30.6666 27.4667V8C29.8666 7.4 29 7 28 6.66667ZM28 24.6667C26.5333 24.2 24.9333 24 23.3333 24C21.0666 24 17.8 24.8667 16 26V10.6667C17.8 9.53333 21.0666 8.66667 23.3333 8.66667C24.9333 8.66667 26.5333 8.86667 28 9.33333V24.6667Z" fill="#CCCCCC"/>
    <path d="M23.3333 14C24.5066 14 25.64 14.12 26.6666 14.3467V12.32C25.6133 12.12 24.48 12 23.3333 12C21.0666 12 19.0133 12.3867 17.3333 13.1067V15.32C18.84 14.4667 20.9333 14 23.3333 14ZM17.3333 16.6533V18.8667C18.84 18.0133 20.9333 17.5467 23.3333 17.5467C24.5066 17.5467 25.64 17.6667 26.6666 17.8933V15.8667C25.6133 15.6667 24.48 15.5467 23.3333 15.5467C21.0666 15.5467 19.0133 15.9467 17.3333 16.6533ZM23.3333 19.1067C21.0666 19.1067 19.0133 19.4933 17.3333 20.2133V22.4267C18.84 21.5733 20.9333 21.1067 23.3333 21.1067C24.5066 21.1067 25.64 21.2267 26.6666 21.4533V19.4267C25.6133 19.2133 24.48 19.1067 23.3333 19.1067Z" fill="#CCCCCC"/>
</svg>
