<svg width="20" height="20" viewBox="0 0 20 20" fill="none" xmlns="http://www.w3.org/2000/svg">
    <path d="M3.54169 3.95834H3.12502C2.90401 3.95834 2.69204 4.04614 2.53576 4.20242C2.37948 4.3587 2.29169 4.57066 2.29169 4.79168V16.4583C2.29169 16.6794 2.37948 16.8913 2.53576 17.0476C2.69204 17.2039 2.90401 17.2917 3.12502 17.2917H16.875C17.096 17.2917 17.308 17.2039 17.4643 17.0476C17.6206 16.8913 17.7084 16.6794 17.7084 16.4583V4.79168C17.7084 4.57066 17.6206 4.3587 17.4643 4.20242C17.308 4.04614 17.096 3.95834 16.875 3.95834H16.4584M13.9584 3.95834H6.04169M15.2084 5.20834V2.70834M4.79169 5.20834V2.70834" stroke="#E7E7E7" stroke-linecap="round" stroke-linejoin="round"/>
    <path d="M8.37086 13.0367C8.80866 13.3322 9.31863 13.5031 9.84613 13.5309C10.3736 13.5588 10.8988 13.4426 11.3652 13.1948C11.8317 12.9469 12.222 12.5768 12.4942 12.1242C12.7664 11.6715 12.9103 11.1532 12.9104 10.625M11.6275 8.21166C11.1896 7.91657 10.6797 7.74616 10.1524 7.71867C9.62507 7.69118 9.1002 7.80765 8.634 8.05561C8.16779 8.30356 7.77782 8.67366 7.50584 9.12627C7.23387 9.57888 7.09013 10.0969 7.09003 10.625" stroke="#E7E7E7" stroke-linecap="round" stroke-linejoin="round"/>
    <path d="M12.4608 10.625H11.3671L12.8713 9.12125L14.375 10.625H12.4608ZM7.53917 10.6254H8.63292L7.12875 12.1292L5.625 10.6254H7.53917V10.6254Z" stroke="#E7E7E7" stroke-linecap="round" stroke-linejoin="round"/>
</svg>
