<svg width="20" height="20" viewBox="0 0 20 20" fill="none" xmlns="http://www.w3.org/2000/svg">
    <path d="M13.85 5.175C13.7637 5.1067 13.6648 5.05616 13.5589 5.0263C13.453 4.99644 13.3422 4.98785 13.233 5.00102C13.1237 5.01419 13.0182 5.04886 12.9224 5.10304C12.8266 5.15721 12.7425 5.22982 12.675 5.31667L6.84164 12.8167L3.98331 9.33333C3.91626 9.24408 3.83197 9.16922 3.73543 9.11317C3.6389 9.05713 3.53209 9.02105 3.42134 9.00708C3.31059 8.99311 3.19817 9.00153 3.09074 9.03184C2.98331 9.06216 2.88306 9.11374 2.79595 9.18354C2.70884 9.25334 2.63664 9.33993 2.58364 9.43817C2.53064 9.53641 2.49791 9.6443 2.4874 9.75542C2.4769 9.86655 2.48882 9.97866 2.52248 10.0851C2.55613 10.1915 2.61082 10.2901 2.68331 10.375L6.15831 14.6917C6.23674 14.7883 6.33584 14.8662 6.44832 14.9196C6.5608 14.9729 6.68381 15.0004 6.80831 15C6.94046 15.0059 7.07211 14.9803 7.19238 14.9252C7.31266 14.8701 7.41809 14.7872 7.49997 14.6833L14.025 6.35C14.0915 6.26169 14.1398 6.16102 14.167 6.05386C14.1943 5.9467 14.1999 5.8352 14.1836 5.72584C14.1673 5.61648 14.1294 5.51146 14.0721 5.41689C14.0149 5.32232 13.9393 5.24009 13.85 5.175ZM18.0166 5.175C17.9304 5.1067 17.8314 5.05616 17.7255 5.0263C17.6196 4.99644 17.5089 4.98785 17.3996 5.00102C17.2904 5.01419 17.1848 5.04886 17.0891 5.10304C16.9933 5.15721 16.9092 5.22982 16.8416 5.31667L11.0083 12.8167L10.5 12.1917L9.44998 13.5417L10.3666 14.6833C10.4451 14.78 10.5442 14.8579 10.6567 14.9113C10.7691 14.9646 10.8921 14.9921 11.0166 14.9917C11.1418 14.9911 11.2652 14.9623 11.3778 14.9075C11.4903 14.8527 11.589 14.7732 11.6666 14.675L18.1916 6.34167C18.2569 6.25361 18.3041 6.15356 18.3306 6.04723C18.3571 5.94091 18.3624 5.8304 18.3461 5.72204C18.3299 5.61367 18.2924 5.50957 18.2359 5.4157C18.1793 5.32184 18.1048 5.24004 18.0166 5.175Z" fill="#888888"/>
    <path d="M7.25835 10.8833L8.33335 9.53334L8.16668 9.33334C8.10089 9.24219 8.01734 9.1653 7.92105 9.10728C7.82476 9.04927 7.71773 9.01134 7.60641 8.99576C7.49508 8.98019 7.38175 8.98731 7.27324 9.01668C7.16473 9.04605 7.06329 9.09708 6.97501 9.16668C6.88941 9.23545 6.81824 9.32046 6.76559 9.41682C6.71295 9.51318 6.67987 9.619 6.66825 9.72819C6.65663 9.83738 6.66671 9.94779 6.69791 10.0531C6.7291 10.1584 6.78079 10.2564 6.85001 10.3417L7.25835 10.8833Z" fill="#888888"/>
</svg>
