<svg width="32" height="32" viewBox="0 0 32 32" fill="none" xmlns="http://www.w3.org/2000/svg">
    <path d="M18.4533 14.808C18.5613 14.9087 18.67 15.004 18.7813 15.0927C19.6413 15.7827 20.5606 16.0793 21.436 16.126C22.9093 16.2047 24.22 15.5473 24.7526 15.2793L24.9026 15.206C25.2225 15.0552 25.4693 14.7835 25.5889 14.4507C25.7084 14.1178 25.6908 13.7512 25.54 13.4313C25.3892 13.1115 25.1175 12.8646 24.7846 12.7451C24.4518 12.6256 24.0852 12.6432 23.7653 12.794L23.5426 12.9007C22.9533 13.1853 22.298 13.5013 21.578 13.4633C21.228 13.444 20.8506 13.334 20.45 13.0127C20.0333 12.678 19.5353 12.0693 19.054 10.9647C18.664 10.07 18.0826 9.37666 17.2573 8.98266C16.4666 8.60533 15.6253 8.58933 14.8753 8.67866C12.8653 8.91733 11.338 10.0827 10.2993 11.1653C9.44398 12.056 8.80598 13.0227 8.49264 13.4967C8.42931 13.5933 8.37931 13.6693 8.34331 13.72C8.14573 14.0093 8.06992 14.3647 8.13228 14.7094C8.19465 15.0541 8.39017 15.3604 8.67657 15.5621C8.96298 15.7639 9.31727 15.8447 9.66284 15.7873C10.0084 15.7299 10.3175 15.5388 10.5233 15.2553C10.598 15.15 10.68 15.0267 10.7713 14.8887C11.1046 14.3873 11.5613 13.7007 12.2233 13.0113C12.7446 12.468 13.3286 11.998 13.9713 11.6893L13.4826 13.0373C12.9893 14.4013 12.4406 15.9307 12.352 16.2373C12.2928 16.4447 12.28 16.6625 12.3146 16.8753C12.3353 17.01 12.3713 17.124 12.4 17.204C12.4566 17.3627 12.532 17.5133 12.5986 17.6347C12.7346 17.8853 12.9213 18.174 13.122 18.4667C13.5286 19.0607 14.0766 19.7907 14.62 20.4973C15.1 21.1207 15.5886 21.7413 15.9906 22.252L16.1513 22.4567C16.3673 22.7307 16.548 22.9607 16.6806 23.1333C16.7406 23.2107 16.7806 23.2653 16.8073 23.3C16.8333 23.3887 16.866 23.5173 16.9053 23.686C16.9833 24.0213 17.0726 24.4573 17.1673 24.9367C17.2286 25.2447 17.292 25.5733 17.354 25.898C17.4806 26.5533 17.604 27.1933 17.6986 27.6213C17.7365 27.7923 17.8076 27.9542 17.908 28.0977C18.0083 28.2412 18.136 28.3635 18.2836 28.4576C18.4313 28.5518 18.596 28.6159 18.7685 28.6464C18.9409 28.6769 19.1177 28.6732 19.2886 28.6353C19.4596 28.5975 19.6215 28.5264 19.765 28.426C19.9085 28.3256 20.0308 28.198 20.1249 28.0503C20.2191 27.9027 20.2833 27.7379 20.3137 27.5655C20.3442 27.3931 20.3405 27.2163 20.3026 27.0453C20.216 26.652 20.1046 26.0787 19.984 25.4507C19.9193 25.116 19.852 24.766 19.784 24.42C19.6972 23.9726 19.6034 23.5265 19.5026 23.082C19.4624 22.9053 19.4175 22.7297 19.368 22.5553C19.3346 22.4433 19.2666 22.21 19.1506 22.0067C19.043 21.8363 18.9259 21.672 18.8 21.5147L18.7933 21.5067C18.6506 21.3207 18.4613 21.08 18.2466 20.8073L18.0846 20.6013C17.5788 19.9607 17.0771 19.3169 16.5793 18.67L18.454 14.808H18.4533ZM13.738 22.8867L11.8346 20.242L11.288 21.8147L7.97198 21.0353C7.62772 20.9544 7.26544 21.0136 6.96482 21.1998C6.6642 21.3861 6.44987 21.6841 6.36898 22.0283C6.28808 22.3726 6.34726 22.7349 6.53348 23.0355C6.71971 23.3361 7.01772 23.5504 7.36198 23.6313L11.8473 24.6853C12.1682 24.7606 12.5056 24.7144 12.7944 24.5556C13.0833 24.3968 13.303 24.1366 13.4113 23.8253L13.738 22.8873V22.8867Z" stroke="#CCCCCC" stroke-linecap="round" stroke-linejoin="round"/>
    <path fill-rule="evenodd" clip-rule="evenodd" d="M21.334 7.99999C21.8644 7.99999 22.3731 7.78928 22.7482 7.4142C23.1233 7.03913 23.334 6.53042 23.334 5.99999C23.334 5.46956 23.1233 4.96085 22.7482 4.58578C22.3731 4.2107 21.8644 3.99999 21.334 3.99999C20.8036 3.99999 20.2949 4.2107 19.9198 4.58578C19.5447 4.96085 19.334 5.46956 19.334 5.99999C19.334 6.53042 19.5447 7.03913 19.9198 7.4142C20.2949 7.78928 20.8036 7.99999 21.334 7.99999ZM21.334 9.33332C22.2181 9.33332 23.0659 8.98213 23.691 8.35701C24.3161 7.73189 24.6673 6.88404 24.6673 5.99999C24.6673 5.11593 24.3161 4.26809 23.691 3.64297C23.0659 3.01785 22.2181 2.66666 21.334 2.66666C20.4499 2.66666 19.6021 3.01785 18.977 3.64297C18.3519 4.26809 18.0007 5.11593 18.0007 5.99999C18.0007 6.88404 18.3519 7.73189 18.977 8.35701C19.6021 8.98213 20.4499 9.33332 21.334 9.33332Z" fill="#CCCCCC"/>
</svg>
